<?xml version="1.0" standalone="no"?>
<!DOCTYPE svg PUBLIC "-//W3C//DTD SVG 20010904//EN"
 "http://www.w3.org/TR/2001/REC-SVG-20010904/DTD/svg10.dtd">
<svg version="1.0" xmlns="http://www.w3.org/2000/svg"
 width="1024.000000pt" height="1024.000000pt" viewBox="0 0 1024.000000 1024.000000"
 preserveAspectRatio="xMidYMid meet">
<metadata>
Created by potrace 1.14, written by Peter Selinger 2001-2017
</metadata>
<g transform="translate(0.000000,1024.000000) scale(0.100000,-0.100000)"
fill="#000000" stroke="none">
<path d="M5975 8644 c-47 -25 -215 -147 -278 -203 -16 -14 -43 -38 -59 -53
-17 -15 -35 -25 -39 -22 -5 3 -6 -2 -3 -10 3 -9 2 -16 -3 -16 -11 0 -21 -9
-337 -314 -109 -105 -215 -207 -235 -226 -70 -67 -210 -195 -257 -235 -25 -22
-54 -47 -63 -56 -54 -53 -162 -130 -172 -123 -7 4 -9 3 -5 -4 8 -13 -135 -109
-219 -147 -109 -49 -122 -57 -154 -106 -49 -71 -78 -138 -107 -244 -2 -5 -12
-41 -23 -80 -11 -38 -30 -113 -41 -165 -12 -52 -23 -104 -25 -115 -6 -25 -8
-35 -36 -175 -12 -63 -26 -117 -31 -118 -4 -2 -6 -8 -3 -12 11 -17 -45 -197
-70 -227 -27 -33 -32 -39 -38 -56 -4 -11 -12 -15 -18 -11 -7 4 -9 3 -5 -4 10
-17 -42 -102 -106 -172 -83 -91 -251 -187 -418 -238 -113 -35 -317 -128 -420
-192 -8 -5 -29 -17 -47 -26 -18 -9 -37 -22 -44 -30 -6 -8 -17 -14 -24 -14 -8
0 -15 -3 -17 -7 -1 -5 -21 -21 -43 -38 -66 -49 -86 -67 -169 -150 -117 -118
-168 -204 -179 -301 -2 -16 -7 -35 -11 -42 -4 -7 -3 -12 1 -12 10 0 10 -41 -1
-58 -4 -7 -3 -12 2 -12 5 0 9 -15 10 -32 1 -18 4 -42 7 -53 2 -11 9 -38 14
-59 5 -22 8 -43 5 -47 -2 -4 0 -9 5 -11 5 -1 12 -16 15 -33 3 -16 19 -67 35
-111 16 -45 27 -85 24 -88 -4 -3 -1 -6 5 -6 6 0 16 -17 23 -37 6 -21 16 -44
22 -51 5 -7 7 -15 4 -19 -4 -3 0 -11 9 -17 8 -6 16 -21 17 -34 0 -12 4 -22 7
-22 8 0 73 -141 73 -157 0 -7 4 -10 8 -8 10 7 20 -25 12 -38 -3 -7 -2 -9 2 -4
5 4 23 -19 40 -50 17 -32 45 -83 63 -114 l31 -56 -37 -44 c-20 -24 -42 -48
-48 -54 -39 -36 -272 -346 -311 -414 -15 -25 -30 -48 -34 -51 -19 -15 -182
-392 -180 -417 0 -2 -7 -19 -15 -40 -9 -20 -17 -44 -19 -52 -2 -9 -18 -59 -35
-111 -18 -52 -33 -103 -35 -114 -3 -10 -9 -24 -15 -30 -5 -7 -7 -15 -5 -18 3
-3 1 -18 -6 -34 -6 -16 -12 -36 -15 -44 -3 -12 -38 -140 -48 -175 -21 -75 -29
-103 -32 -118 -2 -10 -6 -27 -9 -38 -6 -17 -1 -19 62 -19 60 -1 881 -1 1137 0
l99 0 -21 23 c-12 13 -19 27 -15 31 5 4 3 6 -3 4 -6 -1 -52 38 -103 89 -82 80
-90 92 -72 98 12 3 21 11 21 17 0 5 8 7 17 4 10 -4 14 -4 11 0 -11 10 120 86
134 78 7 -4 8 -3 4 4 -4 7 12 21 41 37 26 14 80 45 118 70 39 24 75 44 82 45
6 0 13 3 15 8 5 11 119 77 129 75 5 -2 8 0 6 5 -2 8 43 68 49 65 2 -2 5 0 6 5
1 4 10 16 21 27 10 11 30 35 44 52 14 18 30 30 36 26 5 -3 7 -2 4 4 -7 11 49
77 73 86 11 4 11 6 2 6 -8 1 -2 14 16 33 58 64 83 92 109 125 14 18 31 30 36
26 6 -3 7 -1 3 6 -4 6 0 14 8 17 9 3 14 9 11 14 -6 10 51 60 61 52 4 -4 4 -1
-1 7 -4 7 -4 16 1 20 5 3 49 53 99 111 129 151 162 183 177 174 7 -4 10 -3 5
1 -4 5 3 19 15 32 16 17 24 20 35 11 11 -9 12 -7 6 7 -5 14 -3 17 10 12 9 -3
19 -1 23 5 4 7 3 8 -4 4 -7 -4 -12 -3 -12 3 0 18 21 23 38 9 15 -12 16 -11 3
5 -13 16 -12 19 7 24 12 3 19 10 15 16 -4 6 0 8 11 4 9 -4 15 -3 12 2 -3 5 20
28 52 52 31 23 60 47 63 52 4 5 12 6 18 3 6 -4 11 -2 11 4 0 14 10 24 90 85
36 28 71 56 78 63 8 7 18 9 24 6 6 -4 8 -2 5 3 -8 12 17 36 26 26 4 -3 7 -1 7
6 0 10 13 11 53 6 53 -8 78 -12 87 -15 3 -1 13 -1 24 0 13 1 16 -2 10 -12 -6
-10 -5 -11 8 -1 8 7 18 10 22 6 4 -4 25 -6 46 -4 22 1 40 -1 40 -6 0 -4 24 -9
53 -10 45 -3 92 -9 92 -13 0 0 25 -3 55 -5 58 -5 115 -12 115 -15 0 -1 27 -4
60 -7 33 -2 63 -10 67 -16 6 -9 8 -8 8 1 0 7 5 10 10 7 6 -4 27 -9 48 -11 51
-6 143 -45 135 -57 -3 -6 -1 -7 5 -4 9 6 62 -14 197 -78 28 -12 74 -33 103
-46 28 -12 52 -25 52 -29 0 -3 10 -6 22 -7 11 -1 24 -7 28 -13 4 -7 10 -11 14
-11 3 1 8 0 11 0 3 -1 8 -2 13 -3 4 -1 42 -18 84 -39 43 -20 82 -37 88 -37 5
0 10 -4 10 -8 0 -4 10 -9 22 -9 13 -1 24 -7 26 -13 2 -5 10 -10 18 -10 8 0 14
-5 14 -11 0 -5 4 -8 10 -4 5 3 45 -12 90 -34 44 -22 80 -38 80 -36 0 2 28 -11
61 -28 46 -24 67 -42 84 -72 12 -22 38 -69 57 -105 72 -132 91 -166 108 -195
10 -16 37 -66 60 -110 24 -44 51 -94 61 -112 70 -125 89 -163 83 -163 -4 0 0
-6 11 -13 12 -9 15 -19 10 -28 -5 -8 -4 -10 0 -6 16 14 33 -34 25 -69 -4 -19
-5 -34 -1 -34 3 0 6 -27 6 -60 0 -33 -4 -60 -8 -60 -4 0 -4 -8 0 -17 5 -10 7
-31 6 -48 -4 -40 -4 -62 -1 -113 2 -23 -1 -42 -5 -42 -4 0 -4 -8 1 -17 5 -10
7 -24 5 -30 -4 -10 22 -13 109 -13 975 -2 951 -3 962 17 6 10 11 23 11 28 2
39 30 173 35 170 4 -2 6 6 5 18 -1 12 0 26 3 31 3 5 6 25 8 44 2 18 9 41 16
50 8 10 8 13 1 9 -15 -9 -4 35 11 45 8 5 7 8 -1 8 -9 0 -10 7 -3 26 6 14 10
36 10 50 0 13 4 24 10 24 5 0 7 6 4 13 -3 8 0 26 5 40 8 20 7 27 -1 27 -6 0
-9 3 -5 6 3 3 -5 18 -18 32 -13 14 -22 29 -19 34 3 4 1 8 -4 8 -4 0 -19 21
-32 47 -13 27 -32 57 -42 67 -10 11 -18 25 -18 32 0 6 -7 17 -15 24 -9 7 -14
19 -11 27 3 8 2 12 -2 9 -8 -4 -38 44 -79 124 -10 19 -21 37 -25 38 -5 2 -8 9
-8 17 0 7 -7 18 -16 26 -8 7 -13 21 -11 31 3 10 1 16 -3 13 -8 -5 -89 131 -88
149 0 5 -4 12 -9 15 -18 13 -54 92 -47 103 4 7 3 8 -4 4 -13 -8 -76 109 -67
125 4 5 3 8 -2 7 -4 -2 -9 1 -10 6 -1 5 -5 12 -10 15 -13 10 -84 151 -76 151
5 0 3 4 -2 8 -15 10 -53 78 -57 99 -2 10 -9 24 -16 31 -7 8 -10 18 -7 23 4 5
2 9 -4 9 -9 0 -27 40 -22 49 2 2 -2 7 -7 10 -13 9 -54 91 -45 91 5 0 3 4 -3 8
-18 12 -45 72 -38 84 4 7 3 8 -4 4 -7 -4 -12 -4 -13 1 -1 14 -8 37 -29 97 -12
32 -19 65 -16 73 3 8 1 11 -4 8 -6 -3 -11 4 -12 17 -2 37 -3 42 -11 54 -4 7
-9 29 -12 50 -2 22 -9 62 -15 89 -6 28 -13 61 -15 75 -2 14 -8 46 -13 71 -5
25 -8 57 -8 72 1 15 -1 27 -5 27 -4 0 -10 21 -13 48 -4 26 -14 80 -22 120 -8
40 -12 77 -9 83 4 5 2 9 -3 9 -6 0 -13 15 -16 33 -11 58 -19 92 -29 122 -3 11
-8 31 -11 45 -2 14 -20 74 -40 134 -19 60 -32 114 -29 119 3 6 1 7 -5 3 -7 -4
-12 -3 -12 3 0 5 -3 18 -6 28 -3 11 -2 14 3 7 4 -6 25 -22 45 -36 21 -13 35
-28 30 -33 -4 -5 -2 -5 4 -2 6 4 31 -8 55 -26 24 -18 79 -57 122 -86 42 -30
77 -57 77 -62 0 -5 5 -9 12 -9 11 0 118 -76 129 -93 3 -5 10 -9 15 -9 20 -1
53 -31 47 -42 -3 -6 -3 -8 1 -4 7 6 82 -34 96 -51 6 -8 58 -41 64 -41 3 0 15
18 27 40 13 22 27 40 33 40 5 0 7 3 3 6 -3 3 3 21 14 40 10 19 29 51 40 72 28
48 68 120 86 155 8 15 18 25 23 22 4 -3 7 3 6 13 0 9 4 16 10 15 7 -1 10 6 7
17 -3 11 -1 20 5 20 5 0 13 11 16 25 4 14 11 23 17 19 6 -3 9 2 7 12 -2 12 2
18 10 16 8 -1 11 2 8 7 -5 8 8 37 39 89 6 10 28 49 49 87 22 39 43 73 48 76 6
3 10 10 11 15 1 5 4 8 7 7 3 -1 5 9 5 22 -1 13 -27 63 -59 110 -31 47 -54 91
-50 97 4 7 3 8 -5 4 -6 -4 -14 0 -18 11 -4 10 -15 27 -25 37 -10 11 -18 25
-18 32 0 7 -3 14 -8 16 -11 4 -82 114 -82 126 0 6 -4 12 -9 14 -12 4 -161 229
-178 268 -4 8 -9 17 -13 20 -3 3 -25 33 -48 68 -37 55 -41 66 -30 80 12 15 11
16 -4 4 -14 -11 -18 -10 -28 8 -9 17 -7 38 6 96 10 41 21 74 25 74 4 0 7 12 7
28 1 34 26 135 32 128 3 -2 6 14 7 37 1 23 6 43 12 45 6 2 9 7 7 11 -3 4 -1
23 3 43 7 31 5 40 -18 64 -14 16 -25 32 -23 37 1 5 -1 6 -6 3 -10 -6 -88 85
-84 97 1 5 -1 6 -6 3 -5 -3 -16 4 -25 15 -9 10 -15 19 -13 19 2 0 -22 26 -53
59 -31 32 -73 78 -95 102 -48 55 -187 207 -203 225 -16 16 -17 28 -1 18 7 -4
8 -3 4 5 -4 6 -11 9 -16 6 -7 -4 -80 72 -169 176 -14 18 -43 49 -65 69 -24 24
-35 43 -31 51 5 7 4 10 -2 6 -8 -5 -157 146 -152 155 0 2 -23 27 -52 56 -49
49 -156 122 -180 122 -5 0 -9 5 -9 10 0 6 -3 9 -7 8 -16 -3 -43 15 -36 25 3 6
1 7 -5 3 -6 -4 -43 11 -83 34 -39 22 -75 40 -80 40 -5 0 -9 5 -9 12 0 6 -3 9
-6 6 -3 -4 -22 5 -41 18 -20 13 -39 24 -44 24 -4 0 -30 13 -56 28 -26 16 -102
57 -168 92 -66 35 -121 67 -123 72 -6 14 -25 9 -77 -18z"/>
<path d="M4630 3520 c0 -5 5 -10 11 -10 5 0 7 5 4 10 -3 6 -8 10 -11 10 -2 0
-4 -4 -4 -10z"/>
<path d="M4466 3402 c-3 -5 1 -9 9 -9 8 0 12 4 9 9 -3 4 -7 8 -9 8 -2 0 -6 -4
-9 -8z"/>
<path d="M5922 3253 c-13 -43 -25 -85 -27 -93 -2 -8 -20 -69 -40 -135 -28 -95
-34 -128 -28 -160 4 -22 8 -44 9 -50 1 -5 3 -12 4 -15 2 -6 5 -22 13 -65 13
-65 87 -421 91 -430 1 -5 -1 -23 -6 -40 -9 -29 -12 -40 -23 -85 -3 -11 -7 -28
-9 -37 -3 -10 -15 -54 -26 -98 -12 -44 -23 -84 -24 -90 -19 -88 -31 -123 -37
-119 -5 3 -6 -2 -3 -10 4 -11 20 -16 53 -16 475 -4 956 1 966 10 8 6 12 20 10
31 -2 10 -1 19 3 19 4 0 7 10 8 23 1 12 4 33 7 47 3 14 6 33 6 43 1 12 6 16
14 11 9 -5 9 -4 1 5 -9 9 -8 24 1 56 8 24 11 46 8 49 -4 3 -1 6 4 6 6 0 10 8
9 18 -2 9 1 31 6 47 5 17 11 46 14 65 8 61 24 135 33 149 9 14 -30 104 -50
117 -5 3 -7 10 -4 15 4 5 1 9 -4 9 -6 0 -11 7 -11 15 0 8 -4 15 -10 15 -5 0
-10 6 -10 14 0 7 -9 25 -21 40 -11 14 -18 26 -14 26 4 0 -1 7 -9 16 -9 8 -14
20 -11 25 4 5 1 9 -5 9 -6 0 -15 10 -21 23 -5 12 -20 38 -32 58 -12 20 -42 72
-66 115 -83 148 -90 156 -180 193 -45 18 -84 38 -87 42 -3 5 -14 9 -25 9 -13
0 -18 4 -13 12 4 6 3 8 -4 5 -12 -8 -172 62 -172 75 0 5 -4 6 -10 3 -5 -3 -24
2 -42 12 -18 9 -35 18 -38 18 -3 0 -27 11 -54 23 -27 12 -53 22 -58 22 -5 0
-7 4 -4 8 2 4 -3 8 -12 8 -9 1 -24 4 -32 8 -12 5 -20 -11 -38 -71z"/>
<path d="M4273 3097 c-13 -18 -31 -42 -40 -53 -10 -10 -30 -35 -44 -54 -15
-19 -35 -45 -45 -57 -11 -12 -30 -36 -43 -52 -13 -17 -28 -28 -34 -24 -5 3 -7
1 -3 -5 5 -8 -84 -132 -128 -178 -6 -6 -20 -23 -31 -38 -11 -15 -27 -36 -35
-45 -8 -10 -26 -33 -40 -52 -14 -18 -36 -47 -50 -63 -50 -61 -51 -63 -41 -87
38 -93 131 -337 133 -349 2 -8 7 -18 12 -21 5 -4 9 -20 10 -37 0 -17 4 -28 7
-26 4 2 17 -24 30 -59 12 -34 24 -64 26 -66 1 -2 35 -3 74 -2 56 2 69 -1 63
-11 -5 -10 -4 -11 7 0 18 17 123 17 113 0 -6 -10 -4 -10 7 0 7 7 40 12 79 12
39 0 72 -5 79 -12 10 -9 12 -10 7 -1 -9 16 133 16 153 0 11 -9 13 -9 8 0 -5 8
19 12 93 12 78 1 99 -2 94 -12 -6 -9 -5 -9 7 0 8 6 38 11 68 12 29 0 55 2 58
5 3 2 -11 12 -31 21 -20 10 -36 21 -36 26 0 5 -4 9 -10 9 -18 0 -190 127 -182
135 4 5 1 5 -5 1 -17 -9 -75 35 -68 52 2 7 1 11 -4 8 -5 -3 -11 5 -13 19 -4
16 -1 22 6 18 6 -4 6 -1 -1 8 -7 9 -14 31 -15 50 -2 19 -6 36 -9 39 -4 3 -9
21 -12 40 -3 19 -8 46 -12 60 -3 14 -8 40 -11 59 -2 18 -9 42 -15 52 -7 14 -6
19 3 19 10 0 10 3 -1 9 -8 5 -11 16 -8 25 4 9 3 16 -1 16 -7 0 -13 27 -15 73
-1 9 -4 17 -7 17 -5 0 -12 38 -14 87 -1 11 -4 19 -8 16 -5 -2 -9 10 -9 26 -1
30 -4 48 -9 54 -2 2 -5 16 -13 62 -21 110 -65 295 -70 295 -1 0 -12 -15 -24
-33z"/>
<path d="M3730 2621 c0 -6 4 -13 10 -16 6 -3 7 1 4 9 -7 18 -14 21 -14 7z"/>
</g>
</svg>
