<?xml version="1.0" encoding="UTF-8"?>
<svg width="205px" height="205px" viewBox="0 0 205 205" version="1.1" xmlns="http://www.w3.org/2000/svg" xmlns:xlink="http://www.w3.org/1999/xlink">
    <title>icon-search</title>
    <g id="icon-search" stroke="none" stroke-width="1" fill="none" fill-rule="evenodd">
        <g id="award-copy-2" transform="translate(27.000000, 21.000000)" fill="#57A585" fill-rule="nonzero">
            <path d="M51,102 C79.1665222,102 102,79.1665222 102,51 C102,22.8334778 79.1665222,0 51,0 C22.8334778,0 0,22.8334778 0,51 C0,79.1665222 22.8334778,102 51,102 Z M51,16.6046512 C69.9960266,16.6046512 85.3953488,32.0039734 85.3953488,51 C85.3953488,69.9960266 69.9960266,85.3953488 51,85.3953488 C32.0039734,85.3953488 16.6046512,69.9960266 16.6046512,51 C16.6046512,32.0039734 32.0039734,16.6046512 51,16.6046512 Z" id="Shape"></path>
            <path d="M142.54839,114.430149 L68.1369729,103.679477 C62.4688456,103.679477 57.8739205,108.143118 57.8739205,113.649299 C57.8739205,119.15548 62.4688456,123.619121 68.1369729,123.619121 L142.54839,134.369794 C148.216517,134.369794 152.811442,129.906153 152.811442,124.399972 C152.811442,118.893791 148.216517,114.430149 142.54839,114.430149 Z" id="Path" transform="translate(105.342681, 119.024635) rotate(43.000000) translate(-105.342681, -119.024635) "></path>
        </g>
    </g>
</svg>