<?xml version="1.0" encoding="UTF-8"?>
<svg width="205px" height="205px" viewBox="0 0 205 205" version="1.1" xmlns="http://www.w3.org/2000/svg" xmlns:xlink="http://www.w3.org/1999/xlink">
    <title>award copy</title>
    <g id="Symbols" stroke="none" stroke-width="1" fill="none" fill-rule="evenodd">
        <g id="Artboard-Copy" fill="#57A585" fill-rule="nonzero">
            <g id="award-copy">
                <rect id="Rectangle" opacity="0" x="0" y="0" width="205" height="205"></rect>
                <path d="M162.727851,178.304252 L143.017904,101.358211 C150.305171,92.2731861 154.251801,80.9529175 154.195406,69.2973607 C154.195406,40.9666107 131.274773,18 103.000738,18 C74.726704,18 51.8060705,40.9666107 51.8060705,69.2973607 C51.7826902,81.042866 55.8231964,92.4333617 63.2395463,101.529202 L43.2736258,178.304252 C42.4050296,181.660357 43.6452531,185.209792 46.413397,187.290065 C49.1815409,189.370337 52.9294404,189.569498 55.9016439,187.794264 L101.379574,161.034141 L149.843859,187.87976 C151.153457,188.67163 152.667299,189.058285 154.195406,188.991202 C156.881644,189.07707 159.451255,187.889734 161.130188,185.786857 C162.809121,183.683981 163.401119,180.91138 162.727851,178.304252 L162.727851,178.304252 Z M103.000738,35.0991202 C121.850095,35.0991202 137.130517,50.410194 137.130517,69.2973607 C137.130517,88.1845274 121.850095,103.495601 103.000738,103.495601 C84.1513821,103.495601 68.8709598,88.1845274 68.8709598,69.2973607 C68.8709598,50.410194 84.1513821,35.0991202 103.000738,35.0991202 Z" id="Shape"></path>
            </g>
        </g>
    </g>
</svg>