<?xml version="1.0" encoding="UTF-8"?>
<svg width="205px" height="205px" viewBox="0 0 205 205" version="1.1" xmlns="http://www.w3.org/2000/svg" xmlns:xlink="http://www.w3.org/1999/xlink">
    <title>bulb copy</title>
    <g id="Symbols" stroke="none" stroke-width="1" fill="none" fill-rule="evenodd">
        <g id="Artboard-Copy-2" fill="#57A585" fill-rule="nonzero">
            <g id="bulb-copy">
                <rect id="Rectangle" opacity="0" transform="translate(102.500000, 102.500000) rotate(180.000000) translate(-102.500000, -102.500000) " x="0" y="0" width="205" height="205"></rect>
                <path d="M103,59 C84.4926846,59 68.0617727,70.659874 62.2092457,87.9463579 C56.3567187,105.232842 62.3958095,124.267068 77.2016618,135.2 L77.2016618,169.066667 C77.2016618,178.418688 84.9018681,186 94.4005539,186 L111.599446,186 C121.098132,186 128.798338,178.418688 128.798338,169.066667 L128.798338,135.2 C143.604191,124.267068 149.643281,105.232842 143.790754,87.9463579 C137.938227,70.659874 121.507315,59 103,59 L103,59 Z" id="Path"></path>
                <path d="M102.5,52 C107.19442,52 111,48.0824916 111,43.25 L111,25.75 C111,20.9175084 107.19442,17 102.5,17 C97.8055796,17 94,20.9175084 94,25.75 L94,43.25 C94,48.0824916 97.8055796,52 102.5,52 Z" id="Path"></path>
                <path d="M180.25,94 L162.75,94 C157.917508,94 154,97.8055796 154,102.5 C154,107.19442 157.917508,111 162.75,111 L180.25,111 C185.082492,111 189,107.19442 189,102.5 C189,97.8055796 185.082492,94 180.25,94 Z" id="Path"></path>
                <path d="M43.25,94 L25.75,94 C20.9175084,94 17,97.8055796 17,102.5 C17,107.19442 20.9175084,111 25.75,111 L43.25,111 C48.0824916,111 52,107.19442 52,102.5 C52,97.8055796 48.0824916,94 43.25,94 Z" id="Path"></path>
                <path d="M65.4001109,55.9014029 L53.7759398,44.266103 C50.49914,41.1209841 45.3309626,41.267725 42.2324922,44.5938581 C39.1340217,47.9199911 39.2785861,53.1659774 42.5553856,56.3110965 L54.1795568,67.7005802 C55.755693,69.2454 57.8827545,70.0735422 60.0723658,69.9948647 C62.2695571,69.9863532 64.3683944,69.0690822 65.8844514,67.454764 C68.8843757,64.1251585 68.6678536,58.9602837 65.4001109,55.9014029 L65.4001109,55.9014029 Z" id="Path"></path>
                <path d="M162.589951,44.4083688 C159.412078,41.1972104 154.279695,41.1972104 151.101822,44.4083688 L139.369265,55.7548201 C136.210245,58.9851421 136.210245,64.2022329 139.369265,67.4325548 C140.899458,69.0642513 143.017865,69.9913969 145.235544,70 C147.333305,69.9915082 149.347011,69.1608655 150.857394,67.6810172 L162.589951,56.1689242 C164.132396,54.613826 165,52.4969602 165,50.2886465 C165,48.0803327 164.132396,45.963467 162.589951,44.4083688 L162.589951,44.4083688 Z" id="Path"></path>
            </g>
        </g>
    </g>
</svg>